<mxfile host="app.diagrams.net" agent="Mozilla/5.0 (Windows NT 10.0; Win64; x64) AppleWebKit/537.36 (KHTML, like Gecko) Chrome/130.0.0.0 Safari/537.36" version="24.8.3">
  <diagram name="Page-1" id="t-ELn3o4AtQ5kH7XSWMA">
    <mxGraphModel dx="819" dy="422" grid="0" gridSize="10" guides="1" tooltips="1" connect="1" arrows="1" fold="1" page="1" pageScale="1" pageWidth="2336" pageHeight="1654" math="0" shadow="0">
      <root>
        <mxCell id="0" />
        <mxCell id="1" parent="0" />
        <mxCell id="YxLqHK4n1Vjch61qdXkr-1" value="Register" style="shape=umlActor;verticalLabelPosition=bottom;verticalAlign=top;html=1;outlineConnect=0;" parent="1" vertex="1">
          <mxGeometry x="90" y="240" width="30" height="60" as="geometry" />
        </mxCell>
        <mxCell id="YxLqHK4n1Vjch61qdXkr-2" value="Admin" style="shape=umlActor;verticalLabelPosition=bottom;verticalAlign=top;html=1;outlineConnect=0;" parent="1" vertex="1">
          <mxGeometry x="530" y="135" width="30" height="60" as="geometry" />
        </mxCell>
        <mxCell id="YxLqHK4n1Vjch61qdXkr-7" value="Quiz App" style="swimlane;whiteSpace=wrap;html=1;" parent="1" vertex="1">
          <mxGeometry x="330" y="40" width="140" height="230" as="geometry">
            <mxRectangle x="280" y="50" width="90" height="30" as="alternateBounds" />
          </mxGeometry>
        </mxCell>
        <mxCell id="YxLqHK4n1Vjch61qdXkr-8" value="Manage Users" style="ellipse;whiteSpace=wrap;html=1;" parent="YxLqHK4n1Vjch61qdXkr-7" vertex="1">
          <mxGeometry x="20" y="30" width="100" height="30" as="geometry" />
        </mxCell>
        <mxCell id="YxLqHK4n1Vjch61qdXkr-10" value="Manage Tags" style="ellipse;whiteSpace=wrap;html=1;" parent="YxLqHK4n1Vjch61qdXkr-7" vertex="1">
          <mxGeometry x="20" y="150" width="100" height="30" as="geometry" />
        </mxCell>
        <mxCell id="YxLqHK4n1Vjch61qdXkr-11" value="Manage Answers" style="ellipse;whiteSpace=wrap;html=1;" parent="YxLqHK4n1Vjch61qdXkr-7" vertex="1">
          <mxGeometry x="20" y="190" width="100" height="30" as="geometry" />
        </mxCell>
        <mxCell id="YxLqHK4n1Vjch61qdXkr-27" value="Manage Questions" style="ellipse;whiteSpace=wrap;html=1;" parent="YxLqHK4n1Vjch61qdXkr-7" vertex="1">
          <mxGeometry x="12.5" y="110" width="115" height="30" as="geometry" />
        </mxCell>
        <mxCell id="YxLqHK4n1Vjch61qdXkr-29" value="Manage Quiz" style="ellipse;whiteSpace=wrap;html=1;" parent="YxLqHK4n1Vjch61qdXkr-7" vertex="1">
          <mxGeometry x="20" y="70" width="100" height="30" as="geometry" />
        </mxCell>
        <mxCell id="YxLqHK4n1Vjch61qdXkr-14" value="Guest" style="shape=umlActor;verticalLabelPosition=bottom;verticalAlign=top;html=1;outlineConnect=0;" parent="1" vertex="1">
          <mxGeometry x="90" y="70" width="30" height="60" as="geometry" />
        </mxCell>
        <mxCell id="YxLqHK4n1Vjch61qdXkr-19" value="" style="endArrow=classic;html=1;rounded=0;exitX=0;exitY=0.3333333333333333;exitDx=0;exitDy=0;exitPerimeter=0;entryX=1;entryY=0.5;entryDx=0;entryDy=0;" parent="1" source="YxLqHK4n1Vjch61qdXkr-2" target="YxLqHK4n1Vjch61qdXkr-8" edge="1">
          <mxGeometry width="50" height="50" relative="1" as="geometry">
            <mxPoint x="520" y="210" as="sourcePoint" />
            <mxPoint x="570" y="160" as="targetPoint" />
          </mxGeometry>
        </mxCell>
        <mxCell id="YxLqHK4n1Vjch61qdXkr-20" value="" style="endArrow=classic;html=1;rounded=0;exitX=0;exitY=0.3333333333333333;exitDx=0;exitDy=0;exitPerimeter=0;entryX=1;entryY=0.5;entryDx=0;entryDy=0;" parent="1" source="YxLqHK4n1Vjch61qdXkr-2" target="YxLqHK4n1Vjch61qdXkr-27" edge="1">
          <mxGeometry width="50" height="50" relative="1" as="geometry">
            <mxPoint x="755" y="175" as="sourcePoint" />
            <mxPoint x="615.0000000000009" y="95" as="targetPoint" />
          </mxGeometry>
        </mxCell>
        <mxCell id="YxLqHK4n1Vjch61qdXkr-30" value="" style="endArrow=classic;html=1;rounded=0;exitX=0;exitY=0.3333333333333333;exitDx=0;exitDy=0;exitPerimeter=0;entryX=1;entryY=0.5;entryDx=0;entryDy=0;" parent="1" source="YxLqHK4n1Vjch61qdXkr-2" target="YxLqHK4n1Vjch61qdXkr-29" edge="1">
          <mxGeometry width="50" height="50" relative="1" as="geometry">
            <mxPoint x="735" y="100" as="sourcePoint" />
            <mxPoint x="633" y="145" as="targetPoint" />
          </mxGeometry>
        </mxCell>
        <mxCell id="YxLqHK4n1Vjch61qdXkr-32" value="" style="endArrow=classic;html=1;rounded=0;exitX=0;exitY=0.3333333333333333;exitDx=0;exitDy=0;exitPerimeter=0;entryX=1;entryY=0.5;entryDx=0;entryDy=0;" parent="1" source="YxLqHK4n1Vjch61qdXkr-2" target="YxLqHK4n1Vjch61qdXkr-10" edge="1">
          <mxGeometry width="50" height="50" relative="1" as="geometry">
            <mxPoint x="735" y="100" as="sourcePoint" />
            <mxPoint x="633" y="145" as="targetPoint" />
          </mxGeometry>
        </mxCell>
        <mxCell id="YxLqHK4n1Vjch61qdXkr-33" value="" style="endArrow=classic;html=1;rounded=0;entryX=1;entryY=0.5;entryDx=0;entryDy=0;exitX=0;exitY=0.3333333333333333;exitDx=0;exitDy=0;exitPerimeter=0;" parent="1" source="YxLqHK4n1Vjch61qdXkr-2" target="YxLqHK4n1Vjch61qdXkr-11" edge="1">
          <mxGeometry width="50" height="50" relative="1" as="geometry">
            <mxPoint x="560" y="150" as="sourcePoint" />
            <mxPoint x="625" y="185" as="targetPoint" />
          </mxGeometry>
        </mxCell>
        <mxCell id="YxLqHK4n1Vjch61qdXkr-40" value="Quiz App" style="swimlane;whiteSpace=wrap;html=1;" parent="1" vertex="1">
          <mxGeometry x="160" y="40" width="140" height="350" as="geometry">
            <mxRectangle x="280" y="50" width="90" height="30" as="alternateBounds" />
          </mxGeometry>
        </mxCell>
        <mxCell id="YxLqHK4n1Vjch61qdXkr-41" value="Take Quizzes" style="ellipse;whiteSpace=wrap;html=1;" parent="YxLqHK4n1Vjch61qdXkr-40" vertex="1">
          <mxGeometry x="19.38" y="105" width="100" height="30" as="geometry" />
        </mxCell>
        <mxCell id="YxLqHK4n1Vjch61qdXkr-42" value="Manage Profile" style="ellipse;whiteSpace=wrap;html=1;" parent="YxLqHK4n1Vjch61qdXkr-40" vertex="1">
          <mxGeometry x="19.38" y="225" width="100" height="30" as="geometry" />
        </mxCell>
        <mxCell id="YxLqHK4n1Vjch61qdXkr-43" value="Manage Answers" style="ellipse;whiteSpace=wrap;html=1;" parent="YxLqHK4n1Vjch61qdXkr-40" vertex="1">
          <mxGeometry x="19.38" y="265" width="100" height="30" as="geometry" />
        </mxCell>
        <mxCell id="YxLqHK4n1Vjch61qdXkr-44" value="View Results" style="ellipse;whiteSpace=wrap;html=1;" parent="YxLqHK4n1Vjch61qdXkr-40" vertex="1">
          <mxGeometry x="20.63" y="185" width="97.5" height="30" as="geometry" />
        </mxCell>
        <mxCell id="YxLqHK4n1Vjch61qdXkr-45" value="Create Quizzes" style="ellipse;whiteSpace=wrap;html=1;" parent="YxLqHK4n1Vjch61qdXkr-40" vertex="1">
          <mxGeometry x="19.38" y="145" width="100" height="30" as="geometry" />
        </mxCell>
        <mxCell id="YxLqHK4n1Vjch61qdXkr-54" value="View Quizzes" style="ellipse;whiteSpace=wrap;html=1;" parent="YxLqHK4n1Vjch61qdXkr-40" vertex="1">
          <mxGeometry x="20" y="65" width="100" height="30" as="geometry" />
        </mxCell>
        <mxCell id="YxLqHK4n1Vjch61qdXkr-57" value="Log in / Log up" style="ellipse;whiteSpace=wrap;html=1;" parent="YxLqHK4n1Vjch61qdXkr-40" vertex="1">
          <mxGeometry x="20.63" y="30" width="100" height="30" as="geometry" />
        </mxCell>
        <mxCell id="YxLqHK4n1Vjch61qdXkr-60" value="Bookmark Quizs" style="ellipse;whiteSpace=wrap;html=1;" parent="YxLqHK4n1Vjch61qdXkr-40" vertex="1">
          <mxGeometry x="20.63" y="310" width="100" height="30" as="geometry" />
        </mxCell>
        <mxCell id="YxLqHK4n1Vjch61qdXkr-47" value="" style="endArrow=classic;html=1;rounded=0;exitX=1;exitY=0.3333333333333333;exitDx=0;exitDy=0;exitPerimeter=0;entryX=0;entryY=0.5;entryDx=0;entryDy=0;" parent="1" source="YxLqHK4n1Vjch61qdXkr-1" target="YxLqHK4n1Vjch61qdXkr-41" edge="1">
          <mxGeometry width="50" height="50" relative="1" as="geometry">
            <mxPoint x="165" y="310" as="sourcePoint" />
            <mxPoint x="70" y="390" as="targetPoint" />
          </mxGeometry>
        </mxCell>
        <mxCell id="YxLqHK4n1Vjch61qdXkr-48" value="" style="endArrow=classic;html=1;rounded=0;exitX=1;exitY=0.3333333333333333;exitDx=0;exitDy=0;exitPerimeter=0;entryX=0;entryY=0.5;entryDx=0;entryDy=0;" parent="1" source="YxLqHK4n1Vjch61qdXkr-1" target="YxLqHK4n1Vjch61qdXkr-45" edge="1">
          <mxGeometry width="50" height="50" relative="1" as="geometry">
            <mxPoint x="95" y="100" as="sourcePoint" />
            <mxPoint x="190" y="95" as="targetPoint" />
          </mxGeometry>
        </mxCell>
        <mxCell id="YxLqHK4n1Vjch61qdXkr-49" value="" style="endArrow=classic;html=1;rounded=0;exitX=1;exitY=0.3333333333333333;exitDx=0;exitDy=0;exitPerimeter=0;entryX=0;entryY=0.5;entryDx=0;entryDy=0;" parent="1" source="YxLqHK4n1Vjch61qdXkr-1" target="YxLqHK4n1Vjch61qdXkr-44" edge="1">
          <mxGeometry width="50" height="50" relative="1" as="geometry">
            <mxPoint x="105" y="110" as="sourcePoint" />
            <mxPoint x="200" y="105" as="targetPoint" />
          </mxGeometry>
        </mxCell>
        <mxCell id="YxLqHK4n1Vjch61qdXkr-50" value="" style="endArrow=classic;html=1;rounded=0;exitX=1;exitY=0.3333333333333333;exitDx=0;exitDy=0;exitPerimeter=0;entryX=0;entryY=0.5;entryDx=0;entryDy=0;" parent="1" source="YxLqHK4n1Vjch61qdXkr-1" target="YxLqHK4n1Vjch61qdXkr-42" edge="1">
          <mxGeometry width="50" height="50" relative="1" as="geometry">
            <mxPoint x="115" y="120" as="sourcePoint" />
            <mxPoint x="210" y="115" as="targetPoint" />
          </mxGeometry>
        </mxCell>
        <mxCell id="YxLqHK4n1Vjch61qdXkr-51" value="" style="endArrow=classic;html=1;rounded=0;exitX=1;exitY=0.3333333333333333;exitDx=0;exitDy=0;exitPerimeter=0;entryX=0;entryY=0.5;entryDx=0;entryDy=0;" parent="1" source="YxLqHK4n1Vjch61qdXkr-1" target="YxLqHK4n1Vjch61qdXkr-43" edge="1">
          <mxGeometry width="50" height="50" relative="1" as="geometry">
            <mxPoint x="125" y="130" as="sourcePoint" />
            <mxPoint x="220" y="125" as="targetPoint" />
          </mxGeometry>
        </mxCell>
        <mxCell id="YxLqHK4n1Vjch61qdXkr-55" value="" style="endArrow=classic;html=1;rounded=0;exitX=1;exitY=0.3333333333333333;exitDx=0;exitDy=0;exitPerimeter=0;entryX=0;entryY=0.5;entryDx=0;entryDy=0;" parent="1" source="YxLqHK4n1Vjch61qdXkr-1" target="YxLqHK4n1Vjch61qdXkr-54" edge="1">
          <mxGeometry width="50" height="50" relative="1" as="geometry">
            <mxPoint x="110" y="120" as="sourcePoint" />
            <mxPoint x="189" y="135" as="targetPoint" />
          </mxGeometry>
        </mxCell>
        <mxCell id="YxLqHK4n1Vjch61qdXkr-56" value="" style="endArrow=classic;html=1;rounded=0;exitX=1;exitY=0.3333333333333333;exitDx=0;exitDy=0;exitPerimeter=0;entryX=0;entryY=0.5;entryDx=0;entryDy=0;strokeColor=#1e00ff;" parent="1" source="YxLqHK4n1Vjch61qdXkr-14" target="YxLqHK4n1Vjch61qdXkr-54" edge="1">
          <mxGeometry width="50" height="50" relative="1" as="geometry">
            <mxPoint x="110" y="120" as="sourcePoint" />
            <mxPoint x="190" y="95" as="targetPoint" />
          </mxGeometry>
        </mxCell>
        <mxCell id="YxLqHK4n1Vjch61qdXkr-58" value="" style="endArrow=classic;html=1;rounded=0;exitX=1;exitY=0.3333333333333333;exitDx=0;exitDy=0;exitPerimeter=0;entryX=0;entryY=0.5;entryDx=0;entryDy=0;" parent="1" source="YxLqHK4n1Vjch61qdXkr-1" target="YxLqHK4n1Vjch61qdXkr-57" edge="1">
          <mxGeometry width="50" height="50" relative="1" as="geometry">
            <mxPoint x="110" y="120" as="sourcePoint" />
            <mxPoint x="190" y="160" as="targetPoint" />
          </mxGeometry>
        </mxCell>
        <mxCell id="YxLqHK4n1Vjch61qdXkr-59" value="" style="endArrow=classic;html=1;rounded=0;exitX=1;exitY=0.3333333333333333;exitDx=0;exitDy=0;exitPerimeter=0;entryX=0;entryY=0.5;entryDx=0;entryDy=0;strokeColor=#0400FF;" parent="1" source="YxLqHK4n1Vjch61qdXkr-14" target="YxLqHK4n1Vjch61qdXkr-57" edge="1">
          <mxGeometry width="50" height="50" relative="1" as="geometry">
            <mxPoint x="120" y="130" as="sourcePoint" />
            <mxPoint x="200" y="170" as="targetPoint" />
          </mxGeometry>
        </mxCell>
        <mxCell id="YxLqHK4n1Vjch61qdXkr-61" value="" style="endArrow=classic;html=1;rounded=0;exitX=1;exitY=0.3333333333333333;exitDx=0;exitDy=0;exitPerimeter=0;entryX=0;entryY=0.5;entryDx=0;entryDy=0;" parent="1" source="YxLqHK4n1Vjch61qdXkr-1" target="YxLqHK4n1Vjch61qdXkr-60" edge="1">
          <mxGeometry width="50" height="50" relative="1" as="geometry">
            <mxPoint x="120" y="270" as="sourcePoint" />
            <mxPoint x="190" y="360" as="targetPoint" />
          </mxGeometry>
        </mxCell>
        <mxCell id="hqtzoPMz5lv8qCCWSUu2-2" value="User" style="swimlane;whiteSpace=wrap;html=1;" vertex="1" parent="1">
          <mxGeometry x="686" y="46" width="380" height="361" as="geometry" />
        </mxCell>
        <mxCell id="hqtzoPMz5lv8qCCWSUu2-8" value="User" style="swimlane;fontStyle=0;childLayout=stackLayout;horizontal=1;startSize=30;horizontalStack=0;resizeParent=1;resizeParentMax=0;resizeLast=0;collapsible=1;marginBottom=0;whiteSpace=wrap;html=1;" vertex="1" parent="hqtzoPMz5lv8qCCWSUu2-2">
          <mxGeometry x="14" y="34" width="140" height="120" as="geometry" />
        </mxCell>
        <mxCell id="hqtzoPMz5lv8qCCWSUu2-9" value="Id" style="text;strokeColor=none;fillColor=none;align=left;verticalAlign=middle;spacingLeft=4;spacingRight=4;overflow=hidden;points=[[0,0.5],[1,0.5]];portConstraint=eastwest;rotatable=0;whiteSpace=wrap;html=1;" vertex="1" parent="hqtzoPMz5lv8qCCWSUu2-8">
          <mxGeometry y="30" width="140" height="30" as="geometry" />
        </mxCell>
        <mxCell id="hqtzoPMz5lv8qCCWSUu2-10" value="UserName" style="text;strokeColor=none;fillColor=none;align=left;verticalAlign=middle;spacingLeft=4;spacingRight=4;overflow=hidden;points=[[0,0.5],[1,0.5]];portConstraint=eastwest;rotatable=0;whiteSpace=wrap;html=1;" vertex="1" parent="hqtzoPMz5lv8qCCWSUu2-8">
          <mxGeometry y="60" width="140" height="30" as="geometry" />
        </mxCell>
        <mxCell id="hqtzoPMz5lv8qCCWSUu2-11" value="Item 3" style="text;strokeColor=none;fillColor=none;align=left;verticalAlign=middle;spacingLeft=4;spacingRight=4;overflow=hidden;points=[[0,0.5],[1,0.5]];portConstraint=eastwest;rotatable=0;whiteSpace=wrap;html=1;" vertex="1" parent="hqtzoPMz5lv8qCCWSUu2-8">
          <mxGeometry y="90" width="140" height="30" as="geometry" />
        </mxCell>
        <mxCell id="hqtzoPMz5lv8qCCWSUu2-4" value="Quiz" style="swimlane;whiteSpace=wrap;html=1;" vertex="1" parent="1">
          <mxGeometry x="1110" y="46" width="380" height="361" as="geometry" />
        </mxCell>
        <mxCell id="hqtzoPMz5lv8qCCWSUu2-5" value="Question" style="swimlane;whiteSpace=wrap;html=1;" vertex="1" parent="1">
          <mxGeometry x="688" y="448" width="380" height="361" as="geometry" />
        </mxCell>
        <mxCell id="hqtzoPMz5lv8qCCWSUu2-6" value="Quiz Result&amp;nbsp;" style="swimlane;whiteSpace=wrap;html=1;" vertex="1" parent="1">
          <mxGeometry x="1095" y="453" width="380" height="361" as="geometry" />
        </mxCell>
        <mxCell id="hqtzoPMz5lv8qCCWSUu2-7" value="Category" style="swimlane;whiteSpace=wrap;html=1;" vertex="1" parent="1">
          <mxGeometry x="688" y="841" width="380" height="361" as="geometry" />
        </mxCell>
      </root>
    </mxGraphModel>
  </diagram>
</mxfile>
